<?xml version="1.0" encoding="UTF-8"?><svg id="Layer_1" xmlns="http://www.w3.org/2000/svg" viewBox="0 0 1561.67 643.38"><defs>
        <style>
            .cls-1{font-size:444.02px;}
            .cls-1, .cls-2{fill:navy;font-family:ANDROIDROBOT, 'ANDROID ROBOT';}
            .cls-3{fill:none;}
            .cls-3, .cls-4, .cls-5, .cls-6, .cls-7, .cls-8, .cls-9{stroke-width:0px;}
            .cls-10{letter-spacing:-.03em;}
            .cls-11{letter-spacing:-.03em;}
            .cls-2{font-size:590.87px;}
            .cls-5{fill:#1d2b53;}
            .cls-6{fill:#a9a9a9;}
            .cls-7{fill:#fff;}
            .cls-8{fill:#e67e22;}
            .cls-9{fill:#f5cca0;}
        </style>
    </defs><path class="cls-4" d="m458.87,385.7s.03.06.05.09h0l69.94-.04s.03-.04.04-.05h-70.03Z"/><path class="cls-3" d="m438.28,385.8s-.05-.07-.07-.1"/><path class="cls-4" d="m358.14,385.84l-5.08,7.08c1.02-2.04,2.38-4.03,4.08-7.08h1Z"/><path class="cls-4" d="m459.21,386.3l-20.89-.45s-.03-.03-.04-.05h20.65s0,0,0,0c.03.05.06.11.09.17.06.12.13.23.19.35Z"/><path class="cls-5" d="m421.4,453.66h0c-.22,1.57-.43,3.13-.65,4.69.18.25,1.48,1.92,3.77,2.08h0c.12,0,.25.01.36.01.16,0,.32,0,.48-.02.15-.02.31-.04.45-.07.06-.01.12-.02.17-.04.06-.01.12-.03.17-.04.1-.02.19-.05.28-.08.05-.01.1-.03.15-.05.01,0,.03-.01.04-.02.03,0,.05-.02.08-.03.04-.02.08-.03.12-.05.05-.02.1-.04.14-.07.01,0,.02-.01.03-.02.02,0,.04-.02.06-.02h0c.29-.14.53-.29.72-.41.18-.12.31-.22.38-.28.08-1.92.18-3.82.26-5.74l-7.04.13Zm-18.57,11.6c-.02-1-.04-2-.07-3h0c-1.54-.04-3.08-.08-4.62-.13-1.54-.05-3.08-.09-4.63-.13h0c.1,1.43.19,2.86.28,4.29.08,1.18.16,2.35.23,3.53,0,0,0,0,0,0,.02.03.07.09.13.18.02.03.05.07.08.1.11.13.25.29.43.46.03.03.07.07.1.1.68.63,1.8,1.37,3.29,1.37,2.14,0,4.13-1.52,4.82-3.78-.02-1-.04-2-.07-3Zm-26-10.16h0c-2.25-.7-4.51-1.4-6.78-2.09v5.34c.45,1.35,1.6,2.35,3,2.61,1.07.19,1.97-.11,2.6-.47.14-.08.27-.17.38-.25h0c.17-.13.31-.25.42-.34h0s.07-.07.1-.09c.02-.02.03-.03.04-.04.01-.01.02-.02.03-.03.04-.04.06-.07.07-.08.05-1.52.09-3.04.13-4.56h0Zm-28.71-33.43s-.03-.02-.04-.03c-.02,0-.03-.02-.04-.03,0,0,0,0,0,0-.03.05-.08.13-.15.26-.01.02-.02.05-.03.07-.03.05-.05.1-.08.15-.04.08-.08.18-.13.28t0,0s-.05.1-.07.15-.05.11-.07.17c-.03.08-.06.16-.09.24h0c-.03.08-.06.17-.09.26h0c-.03.09-.05.18-.08.28-.03.09-.05.19-.07.29-.03.15-.07.3-.09.45-.03.21-.06.43-.07.64,0,.06,0,.11,0,.17-.02.75.1,1.55.5,2.32.04.08.1.19.17.31.03.06.08.13.12.2.01.02.03.04.04.06.03.05.06.09.1.14.01.02.03.04.05.06.05.07.11.15.18.23.04.05.08.1.13.14.04.04.08.08.12.12.04.03.08.07.12.11.05.05.11.09.17.13.25.19.55.35.89.46.38.12.75.15,1.09.12.07,0,.14-.01.21-.02.02,0,.04,0,.05,0,.1-.02.2-.03.3-.06.08-.02.16-.04.23-.07.06-.02.12-.04.18-.06.12-.04.22-.09.32-.13.05-.02.1-.05.14-.07.05-.02.09-.05.13-.07.04-.02.08-.04.12-.07.04-.02.07-.04.1-.06.13-.08.21-.14.25-.17v-3.91c-1.54-1.02-3.07-2.04-4.61-3.06Zm73.27,31.99c-.22,1.57-.43,3.12-.65,4.69.18.25,1.48,1.92,3.77,2.08h0c.12,0,.25.01.36.01.16,0,.32,0,.48-.02.15-.02.31-.04.45-.07.06-.01.12-.02.17-.04.06-.01.12-.03.17-.04.1-.02.19-.05.28-.08.05-.01.1-.03.15-.05.01,0,.03-.01.04-.02.03,0,.05-.02.08-.03.04-.02.08-.03.12-.05.05-.02.1-.04.14-.07.01,0,.02-.01.03-.02.02,0,.04-.02.06-.02h0c.29-.14.53-.29.72-.41.18-.12.31-.22.38-.28.08-1.92.18-3.82.26-5.74-2.35.05-4.69.09-7.04.13Z"/><path class="cls-5" d="m462.97,396.46c-.35.28-.69.57-1.03.86.35-.28.69-.57,1.03-.85l.94.85c-.31-.28-.63-.57-.94-.86Zm1.9,1.71h2.54,0s-2.55,0-2.55,0h0s-3.96,0-3.96,0h0s-5.12,0-5.12,0c-.33,0-.65.02-.97.06.32-.04.64-.06.97-.06h5.11c-1.05.87-2.09,1.73-3.14,2.6,1.22,1.04,2.43,2.08,3.65,3.12,1.65.87,3.6.56,4.69-.65,1.17-1.31.82-3.06.78-3.26-.67-.61-1.34-1.21-2.01-1.81Zm.44,9.32c-1.8.74-3.8-.04-7.73-1.64-.1-.04-.2-.08-.3-.12.1.04.2.08.3.12,3.93,1.6,5.93,2.38,7.73,1.64.21-.08.41-.18.6-.3-.2.11-.4.21-.6.29Zm-11.87-8.97c.29-.09.59-.16.89-.22-.3.06-.6.13-.89.22Zm-4.07,2.83h0c.09-.12.19-.23.28-.35-.1.11-.2.23-.29.35Zm74.96,1.72c-.87-.72-1.74-1.43-2.61-2.15-1.31,1.17-2.6,2.34-3.91,3.52h0s0,.02,0,.03c0,.02,0,.03,0,.04,0,.03-.02.07-.02.12h0c0,.06-.02.13-.03.21h0c0,.07-.01.14-.02.21,0,.1,0,.21,0,.33,0,.04,0,.08,0,.12,0,.08.01.16.02.24,0,.05.01.1.02.16v.08c.03.09.05.18.07.27,0,.01,0,.02,0,.03.03.1.06.21.1.32.06.17.13.34.23.51.02.04.04.08.07.12.02.04.05.08.07.12.03.05.07.1.1.14.05.07.11.14.17.21,1.09,1.21,3.04,1.52,4.69.65,1.22-1.04,2.43-2.09,3.65-3.13-.87-.72-1.74-1.43-2.61-2.15Z"/><path class="cls-5" d="m563.93,462.82h0s-.08.12-.17.21h0s-.07.08-.11.13h0s-.07.07-.1.11c-.11.11-.23.23-.38.36h0c-.23.2-.52.41-.85.61h0s-.04.02-.07.03c-.22.13-.46.24-.72.34-.06.02-.12.04-.18.06-.24.08-.5.14-.76.18h0c-.13.02-.27.04-.41.05-.73.05-1.38-.06-1.92-.24-.07-.02-.13-.04-.19-.07-.82-.3-1.36-.73-1.54-.88h0c-.04-.95-.08-1.91-.13-2.86-.05-.96-.09-1.91-.13-2.87h0c1.17.02,2.35.05,3.52.07,1.17.02,2.34.04,3.52.07.22,1.56.43,3.13.65,4.69Z"/><path class="cls-5" d="m591.17,466.47c-.17,2.6-.35,5.21-.52,7.82,0,0,0,.01-.02.02h0s-.03.05-.06.08c-.02.02-.03.04-.04.06-.03.03-.07.08-.1.12-.1.12-.23.26-.38.42-.06.06-.13.12-.2.19h0c-.07.06-.15.13-.23.2-.2.16-.44.33-.7.48-.08.05-.16.09-.24.13-.58.3-1.27.52-2.07.52-.34,0-.68-.04-1-.11-.12-.03-.25-.06-.37-.1-.21-.07-.42-.15-.62-.24-.1-.05-.2-.1-.29-.15-.12-.07-.23-.13-.35-.21-.17-.11-.32-.23-.48-.36-.11-.09-.21-.18-.31-.28-.1-.1-.19-.2-.28-.3-.05-.05-.09-.11-.13-.16-.13-.16-.25-.33-.36-.51-.12-.19-.23-.4-.33-.61-.02-.03-.03-.06-.04-.09-.08-.18-.15-.38-.22-.57,0-.02,0-.03-.02-.05s-.02-.03-.02-.05c.02-1,.05-2,.07-2.99.02-1,.05-2,.07-2.99,3.08-.09,6.17-.18,9.26-.26Z"/><path class="cls-5" d="m614.63,457.47v5.35c-.28.84-.84,1.55-1.56,2.03-.21.14-.45.26-.69.36-.06.02-.12.05-.18.07-.12.04-.25.08-.38.11-.07.02-.13.03-.2.04-.17.03-.34.05-.5.05-.51.02-.97-.06-1.37-.2-.27-.09-.51-.21-.73-.33-.14-.08-.27-.17-.39-.25-.12-.08-.21-.16-.3-.23-.13-.11-.23-.21-.29-.27-.04-.04-.07-.07-.07-.08-.04-1.52-.08-3.04-.13-4.56h0c1.13-.35,2.26-.69,3.39-1.04,1.13-.35,2.26-.7,3.39-1.05Z"/><path class="cls-5" d="m637.66,429.72v.07s0,.1,0,.15c0,.02,0,.04,0,.06,0,.04,0,.07,0,.11,0,.03,0,.06,0,.09,0,.02,0,.04,0,.06-.02.15-.04.31-.08.47-.02.07-.03.13-.05.2-.05.2-.12.4-.21.6-.04.09-.08.18-.13.27-.09.17-.22.43-.43.71-.1.14-.22.29-.36.43-.32.33-.74.64-1.3.81-1.57.48-2.95-.52-3.13-.65v-3.91c1.56-1.04,3.13-2.08,4.69-3.13,0,0,0,0,0,0,.03.06.12.2.22.41.04.08.08.16.12.26.03.07.06.13.09.2.04.11.09.22.13.34h0c.03.08.05.17.08.25.02.04.03.09.04.13.08.27.16.56.22.86.02.1.03.21.05.31.02.11.03.21.03.32,0,.08.01.15.02.23,0,.03,0,.06,0,.09,0,.08,0,.15,0,.23Z"/><path class="cls-6" d="m664.82,418.2v48.48c0,17.95-14.56,32.5-32.5,32.5h-272.14c-17.95,0-32.5-14.56-32.5-32.5v-48.48c0-16.92,12.93-30.82,29.46-32.35-1.7,3.05-3.06,5.04-4.08,7.08-10.29,4.92-17.39,15.43-17.39,27.59v43.78c0,16.88,13.69,30.57,30.57,30.57h261.49c16.88,0,30.57-13.69,30.57-30.57v-43.78c0-16.88-13.69-30.57-30.57-30.57h-.37c-.17-.3-.34-.61-.51-.94-.62-1.15-1.16-2.24-1.66-3.31h7.13c17.95,0,32.5,14.55,32.5,32.5Z"/><path class="cls-4" d="m358.14,385.84l-5.08,7.08c1.02-2.04,2.38-4.03,4.08-7.08h1Z"/><path class="cls-6" d="m528.86,385.75c-.12.13-.23.26-.35.41-.12.14-.24.29-.35.43-.12.15-.24.3-.36.46-.17.23-.35.47-.52.72l-68.08-1.48c-.06-.12-.13-.23-.19-.35-.03-.05-.07-.11-.09-.17l69.94-.04Z"/><path class="cls-8" d="m459.21,386.3l-20.89-.45s-.03-.03-.04-.05h20.65s0,0,0,0c.03.05.06.11.09.17.06.12.13.23.19.35Z"/><line class="cls-3" x1="467.41" y1="398.17" x2="467.4" y2="398.17"/><path class="cls-3" d="m465.37,396.35c-.15-.14-.31-.3-.47-.45"/><path class="cls-3" d="m464.41,395.4c-.17-.17-.33-.36-.51-.55"/><path class="cls-3" d="m591.28,413.87c0,.07-.01.13-.02.19-.02.15-.03.29-.05.43-.01.15-.03.29-.04.43-.07.86-.12,1.69-.14,2.49"/><path class="cls-3" d="m591.14,421.61c-.01-.14-.02-.28-.03-.43"/><line class="cls-3" x1="449.37" y1="401.36" x2="449.36" y2="401.36"/><path class="cls-6" d="m544.76,406.22v.35c0,4.45-3.6,8.05-8.05,8.05h-80.93c-4.45,0-8.05-3.6-8.05-8.05v-.35c0-1.83.61-3.51,1.64-4.86,2.33,2.02,4.63,3.03,7.6,4.25.1.04.2.08.3.12.1.04.2.08.3.12,3.93,1.6,5.93,2.38,7.73,1.64.21-.08.41-.18.6-.3.07-.04.13-.08.2-.12.13-.08.25-.17.37-.25.06-.05.12-.1.18-.15.18-.15.35-.3.51-.46,1.37-1.4,2.17-3.47,1.89-5.27-.11-.74-.38-1.31-.79-1.84-.06-.08-.13-.17-.2-.24-.2-.23-.42-.45-.66-.68h54.32c-.27.36-.58.73-.94,1.14-2.68,3.01-4.78,3.65-5.15,6.09-.38,2.53,1.32,5.55,3.75,6.56,1.8.74,3.8-.04,7.73-1.64,3.37-1.37,5.87-2.39,8.43-4.68,2.02-1.8,2.64-3.14,4.81-6.59,2.62,1.33,4.41,4.04,4.41,7.18Z"/><path class="cls-9" d="m625.19,385.7l-96.32.05s.03-.04.04-.05h96.28Z"/><path class="cls-9" d="m524.33,403.08c-.87-.72-1.74-1.43-2.61-2.15-1.3,1.17-2.61,2.35-3.91,3.51,0,0,0,.02,0,.03,0,.02,0,.03,0,.04,0,.03-.01.07-.02.12h0c0,.06-.02.13-.03.21h0c0,.07-.01.14-.02.21,0,.1,0,.21,0,.33,0,.04,0,.08,0,.12,0,.08.01.16.02.24,0,.05.01.1.02.16v.08c.03.09.05.18.07.27,0,.01,0,.02,0,.03.03.1.06.21.1.32.06.17.13.34.23.51.02.04.04.08.07.12.02.04.05.08.07.12.03.05.07.1.1.14.05.07.11.14.17.21,1.09,1.21,3.04,1.52,4.69.65,1.22-1.04,2.43-2.09,3.65-3.13-.87-.72-1.74-1.43-2.61-2.15Zm0,0c-.87-.72-1.74-1.43-2.61-2.15-1.31,1.17-2.6,2.34-3.91,3.52h0s0,.02,0,.03c0,.02,0,.03,0,.04,0,.03-.02.07-.02.12h0c0,.06-.02.13-.03.21h0c0,.07-.01.14-.02.21,0,.1,0,.21,0,.33,0,.04,0,.08,0,.12,0,.08.01.16.02.24,0,.05.01.1.02.16v.08c.03.09.05.18.07.27,0,.01,0,.02,0,.03.03.1.06.21.1.32.06.17.13.34.23.51.02.04.04.08.07.12.02.04.05.08.07.12.03.05.07.1.1.14.05.07.11.14.17.21,1.09,1.21,3.04,1.52,4.69.65,1.22-1.04,2.43-2.09,3.65-3.13-.87-.72-1.74-1.43-2.61-2.15Z"/><path class="cls-7" d="m526.93,405.23c-1.22,1.04-2.43,2.08-3.65,3.13-1.65.87-3.6.56-4.69-.65-.06-.07-.12-.14-.17-.21-.03-.05-.07-.09-.1-.14-.03-.04-.05-.08-.07-.12-.03-.04-.05-.08-.07-.12-.1-.17-.17-.34-.23-.51-.04-.11-.07-.21-.1-.32,0-.01,0-.02,0-.03-.02-.09-.04-.18-.06-.27v-.08c-.02-.05-.02-.11-.03-.16,0-.08-.01-.16-.02-.24,0-.04,0-.08,0-.12,0-.12,0-.23,0-.33,0-.08,0-.15.02-.21h0c0-.08.02-.16.03-.21h0s.01-.09.02-.12c0-.02,0-.03,0-.04,0,0,0-.02,0-.03h0c1.31-1.17,2.6-2.35,3.91-3.52.87.72,1.74,1.43,2.61,2.15.87.72,1.74,1.43,2.61,2.15Z"/><path class="cls-9" d="m556.38,460.87c.04.96.08,1.91.13,2.86h0c-.04-.96-.09-1.91-.13-2.86Zm-.13-2.87h0c1.17.03,2.35.05,3.52.07-1.17-.02-2.35-.04-3.52-.07Zm25.6,11.73c-.02,1-.04,2-.07,2.99,0,.02.01.03.02.05,0-.02-.01-.03-.02-.05.02-.99.04-1.99.06-2.99Zm26.13-5.6l-.13-4.56h0c.04,1.52.08,3.04.13,4.56,0,0,.03.03.07.08-.04-.04-.06-.07-.07-.08Zm3.26-5.6c1.13-.35,2.26-.7,3.39-1.04h0c-1.13.35-2.26.69-3.39,1.04Zm25.41-32.45c-1.56,1.04-3.13,2.09-4.69,3.13h0c1.57-1.04,3.13-2.08,4.69-3.12,0,0,0,0,0,0Z"/><path class="cls-6" d="m637.65,429.94s0-.1,0-.15v-.07c0,.07,0,.15,0,.22Z"/><path class="cls-6" d="m637.85,427.87c-.65-6.08.31-5.95-.47-9.6-.69-3.23-1.43-3.25-2.58-7.26-1.08-3.77-.95-5.58-1.41-8.2-.88-5.11-2.91-7.18-6.04-12.88-.17-.3-.34-.61-.51-.94-.62-1.15-1.16-2.24-1.66-3.31l-96.32.05c-.12.13-.23.26-.35.41-.12.14-.23.29-.35.43-.12.15-.24.3-.36.46-.17.23-.35.47-.52.72-.44.63-.89,1.35-1.36,2.17-.09.15-.18.31-.26.47-.12.22-.23.43-.35.64-.59,1.11-.99,2.02-1.34,2.83-.07.16-.14.32-.2.47-.17.4-.33.78-.5,1.15-.05.1-.09.2-.15.3-.02.05-.04.09-.06.13-.03.07-.07.13-.1.2-.01.02-.02.04-.03.06-.06.13-.13.27-.2.4-.03.06-.07.13-.11.19-.04.06-.07.13-.11.19-.03.04-.05.09-.08.13-.05.08-.11.17-.17.26-.05.08-.11.17-.17.26-.03.05-.06.09-.1.14-.1.14-.19.28-.3.41-.27.36-.58.73-.94,1.14-2.68,3.01-4.78,3.65-5.15,6.09-.38,2.53,1.32,5.55,3.75,6.56,1.8.74,3.8-.04,7.73-1.64,3.37-1.37,5.87-2.39,8.43-4.68,2.02-1.8,2.64-3.14,4.81-6.59.18-.29.37-.59.57-.9,1.21-1.89,2.88-4.39,5.05-7.31.21-.28.44-.58.66-.88.35-.46.7-.93,1.07-1.4.33.47.65.94.95,1.4.18.29.37.57.54.85,4.34,6.93,5.43,12.71,5.53,16.94.14,5.91-1.66,8.46-1.87,18.25-.15,6.73.69,5.82.7,13.11,0,11.83-2.2,16.22.7,23.18,2.07,4.98,4.36,5.52,4.91,5.62,3.03.56,5.71-2.63,5.85-2.81,2.72-3.32,2.12-7.94,1.87-10.07,0,0-2.21-18.84,2.34-41.21.52-2.55,1.31-5.78,2.57-5.85,1.61-.1,3.15,4.99,3.75,7.02,2.64,8.95,2.3,16.63,2.11,21.07-.72,16.76-.93,24.25,1.4,33.24,1.34,5.16,2.89,8.45,5.62,9.13,2.48.61,5.57-1.01,7.02-3.28,1.54-2.37,1.08-5.15.94-6.08-2.06-13.65,3.82-19.59,0-38.16-.17-.85-.38-1.8-.59-2.84-.03-.17-.07-.35-.1-.53-.1-.53-.2-1.07-.3-1.65-.03-.15-.05-.29-.07-.44-.05-.3-.09-.6-.13-.91-.05-.33-.09-.67-.13-1.02-.02-.17-.04-.35-.06-.52-.02-.19-.04-.38-.06-.57-.02-.14-.03-.28-.03-.41-.02-.14-.03-.28-.03-.42-.02-.14-.02-.28-.03-.43-.08-1.18-.11-2.43-.08-3.76,0,0,0,0,0-.01.02-.8.07-1.64.14-2.49,0-.14.02-.29.04-.43.01-.15.03-.29.04-.43,0-.06.02-.12.02-.19,0-.07.01-.14.02-.21.02-.15.03-.3.05-.47.02-.17.04-.34.07-.52.02-.18.05-.37.08-.56.03-.24.07-.49.12-.74.01-.07.02-.15.04-.23.03-.18.07-.36.1-.54.03-.15.06-.31.1-.46.07-.3.14-.61.22-.89.02-.07.04-.15.06-.21.02-.07.04-.14.07-.21.04-.14.09-.27.14-.4.15-.41.31-.77.5-1.06.03-.05.07-.11.11-.16.04-.06.08-.12.13-.17.05-.05.09-.1.14-.14.05-.05.09-.08.14-.12.05-.04.1-.07.15-.1.05-.03.1-.05.16-.07.05-.02.11-.03.17-.04,1.75-.27,3.82,4.33,4.69,6.32,7.64,17.37,5.38,37.22,5.38,37.22-.63,5.59-1.73,10.35,1.17,14.28.25.33,3.46,4.57,7.26,3.74,2.56-.56,4.17-3.17,4.68-5.15.46-1.78.02-2.93-.23-4.68-.74-5.09,1.42-6.05,1.64-11.71.2-5.01-1.47-4.89-1.64-11.47-.11-4.35.62-4.45.47-8.43-.07-1.77-.26-2.99-2.34-11.47-1.72-7.01-2.51-9.9-1.64-13.82.23-1.04.85-3.82,2.11-3.98.93-.11,2.12,1.21,4.21,6.09,4.1,9.53,5.97,19.28,6.09,19.9.82,4.39,1.13,7.35,3.51,10.54.69.93,3.21,4.31,5.62,3.74,1.95-.46,2.82-3.26,3.04-3.98.6-1.93.28-3.21,0-5.86Zm-114.57-19.52c-1.65.87-3.6.56-4.69-.65-.06-.07-.12-.14-.17-.21-.03-.05-.07-.09-.1-.14-.03-.04-.05-.08-.07-.12-.03-.04-.05-.08-.07-.12-.1-.17-.17-.34-.23-.51-.04-.11-.07-.21-.1-.32,0-.01,0-.02,0-.03-.02-.09-.04-.18-.06-.27v-.08c-.02-.05-.02-.11-.03-.16,0-.08-.01-.16-.02-.24,0-.04,0-.08,0-.12,0-.12,0-.23,0-.33,0-.08,0-.15.02-.21h0c0-.08.02-.15.03-.21h0s.01-.09.02-.12c0-.02,0-.03,0-.04,0,0,0-.02,0-.03h0c1.31-1.17,2.6-2.35,3.91-3.52.87.72,1.74,1.43,2.61,2.15.87.72,1.74,1.43,2.61,2.15-1.22,1.04-2.43,2.08-3.65,3.13Zm40.65,54.47s-.08.11-.17.21h0s-.07.08-.11.13h0s-.07.07-.1.11c-.11.11-.23.23-.38.36h0c-.23.2-.52.41-.85.61h0s-.04.02-.07.03c-.22.13-.46.24-.72.34-.06.02-.12.04-.18.06-.24.08-.5.14-.76.18h0c-.13.02-.27.04-.41.05-.73.05-1.38-.06-1.92-.24-.07-.02-.13-.04-.19-.07-.82-.3-1.36-.73-1.54-.88h0c-.04-.95-.08-1.91-.13-2.86-.05-.96-.09-1.91-.13-2.87h0c1.17.02,2.35.05,3.52.07,1.17.02,2.34.04,3.52.07.22,1.56.43,3.13.65,4.69h0Zm27.24,3.65c-.17,2.6-.35,5.21-.52,7.82,0,0,0,.01-.02.02h0s-.03.05-.06.08c-.02.02-.03.04-.04.06-.03.03-.06.08-.1.12-.1.12-.23.26-.38.42-.06.06-.13.12-.2.19h0c-.07.06-.15.13-.23.2-.2.16-.44.33-.7.48-.08.05-.16.09-.24.13-.58.3-1.27.52-2.07.52-.34,0-.68-.04-1-.11-.12-.03-.25-.06-.37-.1-.21-.07-.42-.15-.62-.24-.1-.05-.2-.1-.29-.15-.12-.07-.23-.13-.35-.21-.17-.11-.32-.23-.48-.36-.11-.09-.21-.18-.31-.28-.1-.09-.19-.19-.28-.3-.05-.05-.09-.11-.13-.16-.13-.16-.25-.33-.36-.51-.12-.19-.23-.4-.33-.61-.02-.03-.03-.06-.04-.09-.08-.18-.16-.37-.22-.57-.02-.03-.02-.06-.03-.09.02-1,.05-2,.07-2.99.02-1,.05-2,.07-2.99,3.08-.09,6.17-.18,9.26-.26Zm23.46-9v5.35c-.28.84-.84,1.55-1.56,2.03-.21.14-.45.26-.69.36-.06.02-.12.05-.18.07-.12.04-.25.08-.38.11-.07.02-.13.03-.2.04-.17.03-.34.05-.5.05-.51.02-.97-.06-1.37-.2-.27-.09-.51-.21-.73-.33-.14-.08-.27-.17-.39-.25-.12-.08-.21-.16-.3-.23-.13-.11-.23-.21-.29-.27-.04-.04-.07-.07-.07-.08-.04-1.52-.08-3.04-.13-4.56h0c1.13-.35,2.26-.69,3.39-1.04,1.13-.35,2.26-.7,3.39-1.05Zm23.04-27.68s0,.1,0,.15c0,.02,0,.04,0,.06,0,.03,0,.07,0,.11,0,.03,0,.06,0,.09,0,.02,0,.04,0,.06-.02.15-.04.31-.08.47-.02.07-.03.13-.05.2-.05.2-.12.4-.21.6-.04.09-.08.18-.13.27-.09.17-.22.43-.43.71-.1.14-.22.29-.36.43-.32.33-.74.64-1.3.81-1.57.48-2.95-.52-3.13-.65v-3.91c1.56-1.04,3.13-2.08,4.69-3.13,0,0,0,0,0,0,.03.06.12.2.22.41.04.08.08.16.12.26.03.07.06.13.09.2.05.11.09.22.13.34h0c.03.08.05.17.08.25.02.04.03.09.04.13.08.27.16.56.22.86.02.1.03.21.05.31.02.11.03.21.03.32.01.08.02.15.02.23,0,.03,0,.06,0,.09,0,.08,0,.15,0,.23v.07Z"/><path class="cls-7" d="m614.63,457.47v5.35c-.28.84-.84,1.55-1.56,2.03-.21.14-.45.26-.69.36-.06.02-.12.05-.18.07-.12.04-.25.08-.38.11-.07.01-.13.03-.2.04-.17.03-.34.05-.5.06-.51.02-.97-.06-1.37-.2-.27-.09-.51-.21-.73-.33-.14-.08-.27-.17-.39-.25-.12-.08-.21-.16-.3-.23-.13-.11-.23-.21-.29-.27-.04-.04-.07-.07-.07-.08-.04-1.52-.08-3.04-.13-4.56h0c1.13-.35,2.26-.69,3.39-1.04,1.13-.35,2.26-.7,3.39-1.05Z"/><path class="cls-7" d="m637.66,429.72c0,.07,0,.15,0,.22,0,.02,0,.04,0,.06,0,.04,0,.07,0,.11,0,.03,0,.06,0,.09,0,.02,0,.04,0,.06-.02.15-.04.31-.08.47-.02.07-.03.13-.05.2-.06.2-.13.4-.21.6-.04.09-.08.18-.13.27-.09.17-.22.43-.43.71-.1.14-.22.29-.36.43-.32.33-.74.64-1.3.81-1.57.48-2.95-.52-3.13-.65v-3.91c1.56-1.04,3.13-2.08,4.69-3.13,0,0,0,0,0,0,.03.06.12.2.22.41.04.08.08.16.12.26.03.07.06.13.09.2.04.11.09.22.13.34h0c.03.08.05.17.08.25.02.04.03.09.04.13.08.27.16.56.22.86.02.1.03.21.05.31.02.11.03.21.03.32,0,.08.01.15.02.23,0,.03,0,.06,0,.09,0,.08,0,.15,0,.23Z"/><path class="cls-5" d="m640.04,189.88c-1,1.84-2.76,4.43-5.9,6.81-4.35,3.29-8.13,3.75-11,5.36-7.89,4.41-6.13,15.92-5.69,19.46,1.78,14.14,1.57,49.9.62,99.84-3.62-.07-7.24-.13-10.86-.19-.09,3.34-.18,6.69-.27,10.03,4.33,8.63,6.77,15.97,8.19,21.07,2.5,8.92,2.11,11.8,5.39,21.31,1.66,4.82,2.87,8.33,4.66,12.14h-96.28c2.81-3.21,5.18-3.98,7.97-9.29,1.84-3.5,1.01-3.54,4-11.21,1.97-5.04,3.75-8.64,5.2-11.6,4.71-9.57,9.98-18.01,14.01-24.02-.25-3.09-.5-6.2-.75-9.29-44.72-.79-89.43-1.59-134.15-2.38-.2,2.4-.39,4.81-.58,7.21,4.03,6,9.3,14.45,14.01,24.01,1.46,2.97,3.23,6.56,5.2,11.61,2.99,7.66,2.17,7.71,4,11.2,3.75,7.12,6.74,6.07,11.06,13.75h-20.67c-.39-.53-.8-1.06-1.23-1.62-.38.55-.75,1.09-1.09,1.62l-77.74.15h-1c.23-.41.47-.84.71-1.29,2.81-5.26,4.19-9.28,6.32-15.45,3.28-9.51,2.89-12.38,5.39-21.31,1.43-5.11,3.86-12.44,8.19-21.07-.09-3.22-.17-6.45-.26-9.67-3.88-.07-7.76-.14-11.64-.21-.54-35.03-1.07-70.06-1.6-105.09-.45-2.15-2-7.79-8.2-12.87-7.21-5.9-15.98-7.19-18.63-7.5.07-2.32.13-4.65.19-6.97,37.86.34,75.73.68,113.59,1.02.69,2.49,1.14,6.15-1.4,9.12-3.05,3.56-8,3.27-12.75,6.61-2.52,1.79-5.55,4.99-6.59,11.15.35,21.22.71,42.45,1.06,63.67,38.26-.08,76.51-.17,114.77-.26.37-20.04.75-40.08,1.12-60.12.78-1.45,1.98-4.29,1.36-7.81-.82-4.65-4.67-9.58-10.52-11.63-6.15-2.15-11.79-.17-13.07-2.11-.92-1.39,1.21-3.6,3-5.14,37.29.32,74.58.64,111.87.97Z"/><path class="cls-9" d="m421.4,453.66h0c-.22,1.57-.43,3.13-.65,4.69.18.25,1.48,1.92,3.77,2.08h0c.12,0,.25.01.36.01.16,0,.32,0,.48-.02.15-.02.31-.04.45-.07.06-.01.12-.02.17-.04.06-.01.12-.03.17-.04.1-.02.19-.05.28-.08.03-.01.07-.02.1-.03.02,0,.03,0,.04-.01.01,0,.03-.01.04-.02h0c.07-.03.13-.05.18-.07,0,0,0,0,.02,0,.05-.02.1-.04.14-.07.01,0,.02-.01.03-.02.01,0,.03-.01.04-.02,0,0,.02,0,.02,0,.29-.14.53-.28.72-.41.18-.12.31-.22.38-.28.08-1.92.18-3.82.26-5.74l-7.04.13Zm-27.89,8.34h0c1.54.05,3.09.09,4.63.13-1.54-.05-3.08-.09-4.63-.13Zm.28,4.29c.08,1.18.16,2.35.23,3.53,0,0,0,0,0,0-.08-1.18-.16-2.36-.24-3.54Zm-23.74-13.28h0c2.26.69,4.52,1.39,6.78,2.09h0c-2.25-.7-4.51-1.4-6.78-2.09Zm-22.02-31.4s-.08.13-.15.26c.07-.13.12-.22.15-.26,0,0,0,0,0,0Zm73.36,32.05c-.22,1.57-.43,3.12-.65,4.69.18.25,1.48,1.92,3.77,2.08h0c.12,0,.25.01.36.01.16,0,.32,0,.48-.02.15-.02.31-.04.45-.07.06-.01.12-.02.17-.04.06-.01.12-.03.17-.04.1-.02.19-.05.28-.08.03-.01.07-.02.1-.03.02,0,.03,0,.04-.01.01,0,.03-.01.04-.02h0c.07-.03.13-.05.18-.07,0,0,0,0,.02,0,.05-.02.1-.04.14-.07.01,0,.02-.01.03-.02.01,0,.03-.01.04-.02,0,0,.02,0,.02,0,.29-.14.53-.28.72-.41.18-.12.31-.22.38-.28.08-1.92.18-3.82.26-5.74-2.35.05-4.69.09-7.04.13Z"/><path class="cls-6" d="m353.06,392.93c-.8,1.6-1.39,3.24-1.77,5.44-.45,2.61-.32,4.43-1.41,8.19-1.15,4.01-1.89,4.03-2.57,7.26-.78,3.64.18,3.52-.47,9.6-.28,2.64-.6,3.93,0,5.85.22.72,1.09,3.53,3.04,3.98,2.41.56,4.92-2.81,5.62-3.75,2.38-3.19,2.69-6.14,3.51-10.53.12-.63,1.98-10.38,6.08-19.9,2.02-4.69,3.19-6.09,4.11-6.09v-.22l-16.15.17Zm-.32,35.72s-.12.09-.25.17c-.03.02-.07.04-.1.06-.03.02-.07.04-.12.07-.04.02-.08.05-.13.07-.04.02-.09.05-.14.07-.1.05-.21.09-.32.13-.06.02-.12.04-.18.06-.08.02-.15.05-.23.07-.1.02-.2.04-.3.06-.02,0-.03,0-.05,0-.07.01-.14.02-.21.02-.35.02-.71,0-1.09-.12-.35-.11-.64-.27-.89-.46-.06-.04-.12-.09-.17-.13-.04-.03-.08-.07-.12-.11-.04-.04-.08-.08-.12-.12-.05-.05-.09-.09-.13-.14-.07-.08-.13-.15-.18-.23-.02-.02-.03-.04-.05-.06-.04-.05-.07-.09-.1-.14-.02-.02-.03-.04-.04-.06-.04-.07-.08-.13-.12-.2-.07-.12-.13-.23-.17-.31-.4-.76-.52-1.57-.5-2.32,0-.05,0-.11,0-.17.01-.21.04-.43.07-.64.03-.15.06-.3.09-.45.02-.1.05-.2.07-.29.03-.1.05-.18.08-.27h0c.03-.09.06-.18.09-.26h0c.03-.08.06-.17.09-.24.02-.06.04-.12.07-.17s.05-.1.07-.15t0,0c.04-.1.08-.2.13-.28.02-.05.05-.1.08-.15.01-.03.02-.05.03-.07.07-.13.12-.22.15-.26,0,0,0,0,0,0,.02,0,.03.02.04.03.02.01.03.02.04.03,1.54,1.02,3.07,2.04,4.61,3.06v3.91Z"/><path class="cls-6" d="m427.05,459.97s-.03.02-.04.02c.02,0,.04-.02.06-.02,0,0-.01,0-.02,0Zm-.42.18s.05-.02.08-.03c-.02,0-.05.02-.08.02h0Z"/><path class="cls-6" d="m358.14,385.84l-5.08,7.08,16.15-.17v.22s.08,0,.11,0c1.26.15,1.87,2.94,2.11,3.98.86,3.91.08,6.81-1.64,13.81-2.08,8.48-2.28,9.7-2.34,11.47-.16,3.98.57,4.08.46,8.43-.16,6.59-1.84,6.45-1.64,11.47.23,5.66,2.38,6.61,1.64,11.7-.26,1.75-.69,2.91-.23,4.68.51,1.98,2.12,4.59,4.68,5.15,3.79.83,7.01-3.42,7.26-3.75,2.9-3.93,1.8-8.7,1.17-14.28,0,0-2.25-19.85,5.38-37.23.88-1.98,2.94-6.59,4.69-6.32,1.79.28,2.36,5.55,2.58,7.49.81,7.49-.63,13.09-1.4,16.86-3.82,18.56,2.07,24.51,0,38.16-.14.93-.6,3.71.94,6.08,1.46,2.27,4.55,3.9,7.02,3.28,2.73-.68,4.28-3.97,5.62-9.13,2.34-9,2.13-16.49,1.41-33.25-.19-4.44-.53-12.12,2.11-21.07.6-2.03,2.13-7.12,3.75-7.02,1.26.08,2.06,3.31,2.58,5.85,4.55,22.36,2.34,41.21,2.34,41.21-.25,2.12-.84,6.74,1.87,10.07.15.18,2.82,3.37,5.85,2.81.55-.1,2.84-.64,4.92-5.62,2.9-6.96.69-11.34.7-23.17,0-7.29.85-6.39.7-13.11-.21-9.79-2.01-12.35-1.87-18.26.07-2.99.64-6.78,2.51-11.21.3-.69.62-1.39.98-2.12.66-1.33,1.45-2.72,2.37-4.15.02-.03.04-.07.07-.1l-77.74.15Zm18.57,73.82s-.03.03-.07.08c-.01.01-.02.02-.03.03-.01.01-.03.02-.04.04-.03.02-.06.05-.1.09h0c-.11.1-.25.21-.42.34h0c-.11.08-.24.17-.38.25-.63.36-1.53.66-2.6.47-1.39-.26-2.55-1.26-3-2.61v-5.34c2.26.69,4.52,1.39,6.78,2.08h0s0,0,0,0c-.04,1.52-.08,3.04-.13,4.56Zm21.37,12.38c-1.49,0-2.61-.75-3.29-1.37-.03-.03-.07-.07-.1-.1-.18-.17-.32-.33-.43-.46-.03-.03-.06-.07-.08-.1-.07-.08-.12-.15-.13-.18,0,0,0,0,0,0-.08-1.18-.15-2.35-.23-3.53-.09-1.43-.19-2.86-.28-4.28h0c1.54.04,3.08.08,4.63.13,1.54.05,3.08.09,4.62.13h0c.02,1,.05,2,.07,3,.02,1,.04,2,.07,3-.69,2.26-2.68,3.78-4.82,3.78Zm30.1-12.77c-.07.06-.2.16-.38.28-.19.12-.43.27-.72.41h0s-.04.02-.06.03c-.01,0-.02.01-.03.02-.05.02-.09.05-.14.07-.04.02-.08.03-.12.05-.03,0-.05.02-.08.03-.01,0-.03.01-.04.02-.05.02-.1.03-.15.05-.09.03-.18.06-.28.08-.05.02-.11.03-.17.04-.06.02-.12.03-.17.04-.15.03-.3.05-.45.07-.15.02-.31.02-.48.02-.12,0-.24,0-.36-.01h0c-2.3-.17-3.59-1.83-3.77-2.08.21-1.57.43-3.12.65-4.69h0c2.35-.05,4.69-.09,7.04-.13-.08,1.91-.18,3.82-.26,5.74Z"/><path class="cls-7" d="m428.44,453.54c-.08,1.91-.18,3.82-.26,5.74-.07.06-.2.16-.38.28-.19.12-.43.27-.72.41,0,0-.02,0-.02,0-.01,0-.03.02-.04.02-.01,0-.02.01-.03.02-.05.02-.1.05-.16.07-.06.02-.12.05-.18.07h0s-.05.02-.08.03c-.03.01-.07.02-.1.03-.09.03-.18.06-.28.08-.05.02-.11.03-.17.04-.06.02-.12.03-.17.04-.15.03-.3.05-.45.07-.16.02-.32.02-.48.02-.12,0-.24,0-.36-.01h0c-2.3-.17-3.59-1.83-3.77-2.08.21-1.57.43-3.12.65-4.69h0c2.35-.05,4.69-.09,7.04-.13Z"/><path class="cls-9" d="m358.14,385.84l-5.08,7.08c1.02-2.04,2.38-4.03,4.08-7.08h1Z"/><path class="cls-7" d="m376.84,455.1h0c-.04,1.52-.08,3.04-.13,4.56,0,0-.03.03-.07.08-.01.01-.02.02-.03.03-.01.01-.02.02-.04.04-.03.02-.06.05-.1.09h0c-.11.1-.25.21-.42.34h0c-.11.08-.24.17-.38.25-.63.36-1.53.66-2.6.47-1.39-.26-2.55-1.26-3-2.61v-5.34c2.26.69,4.52,1.39,6.78,2.08Z"/><path class="cls-7" d="m402.9,468.26c-.69,2.26-2.68,3.78-4.82,3.78-1.49,0-2.61-.75-3.29-1.37-.03-.03-.07-.07-.1-.1-.18-.17-.32-.33-.43-.46-.03-.03-.06-.07-.08-.1-.07-.08-.12-.15-.13-.18,0,0,0,0,0,0-.08-1.18-.15-2.35-.23-3.53-.09-1.43-.19-2.86-.28-4.28h0c1.54.04,3.08.08,4.63.13,1.54.05,3.08.09,4.62.13.03,1,.05,2,.07,3,.02,1,.04,2,.07,3Z"/><path class="cls-7" d="m466.1,403.24c-1.09,1.21-3.04,1.52-4.69.65-1.22-1.04-2.43-2.08-3.65-3.12,1.05-.87,2.09-1.73,3.14-2.6h0s3.96,0,3.96,0h0s0,0,0,0c.67.6,1.34,1.21,2.01,1.81.04.2.39,1.95-.78,3.26Z"/><path class="cls-7" d="m464.86,398.17h-3.95c.35-.28.69-.57,1.03-.85.35-.29.69-.57,1.03-.86.31.28.63.57.94.86s.63.57.94.85Z"/><path class="cls-9" d="m459.21,386.3l-20.89-.45s-.03-.03-.04-.05c-.02-.03-.05-.07-.08-.1h20.67s.03.06.05.09h0c.03.05.06.11.09.17.06.12.13.23.19.35Z"/><path class="cls-6" d="m469.05,400.94c-.11-.74-.38-1.31-.79-1.84-.06-.08-.13-.17-.2-.24-.2-.23-.42-.45-.66-.68h-2.54c.67.6,1.34,1.21,2.01,1.81.04.2.39,1.95-.78,3.26-1.09,1.21-3.04,1.52-4.69.65-1.22-1.04-2.43-2.08-3.65-3.12,1.05-.87,2.09-1.73,3.14-2.6h-5.11c-.33,0-.65.02-.97.06.32-.04.64-.06.97-.06h5.12c.35-.28.69-.57,1.03-.85.35-.29.69-.57,1.03-.86.31.28.63.57.94.86s.63.57.94.85h2.55c-.06-.05-.12-.11-.18-.16-.06-.05-.12-.11-.18-.16-.03-.03-.07-.07-.11-.1,0,0,0,0-.02-.01-.02-.02-.03-.03-.05-.05-.01,0-.02-.02-.03-.03-.03-.03-.07-.07-.11-.1-.02-.02-.04-.03-.06-.05h0s-.09-.08-.14-.12c-.01,0-.02-.02-.03-.03-.01-.01-.02-.02-.03-.03-.07-.06-.13-.12-.2-.18-.03-.03-.07-.06-.1-.09-.04-.03-.08-.07-.12-.1-.07-.07-.15-.13-.22-.2-.15-.13-.3-.27-.45-.41-.15-.14-.31-.29-.47-.45-.08-.08-.16-.16-.24-.24-.08-.08-.17-.17-.25-.25h0c-.17-.18-.34-.36-.51-.55-.26-.3-.5-.58-.71-.84-.1-.14-.21-.27-.3-.4-.48-.66-.84-1.26-1.14-1.86-.29-.58-.54-1.16-.82-1.8-.43-1-.91-2.15-1.72-3.64l-20.89-.45c1.11,1.47,2.1,2.85,2.96,4.1.49.71.94,1.38,1.36,2.01.41.62.79,1.2,1.13,1.73,2.65,4.15,3.2,5.53,5.38,7.49.07.07.14.13.21.18.09-.12.18-.24.29-.35-.1.12-.19.23-.28.35,2.33,2.02,4.63,3.03,7.6,4.25.1.04.2.08.3.12.1.03.2.08.3.12,3.93,1.6,5.93,2.38,7.73,1.64.2-.08.4-.18.6-.29.07-.04.13-.08.2-.12.13-.08.25-.17.37-.25.06-.05.12-.1.18-.15.18-.15.35-.3.51-.46,1.37-1.4,2.17-3.47,1.89-5.27Zm-15.62-2.41c.29-.09.58-.16.89-.22-.3.06-.6.13-.89.22Z"/><path class="cls-9" d="m449.36,401.36c.09-.12.18-.24.29-.35-.1.12-.19.23-.28.35h0Z"/><path class="cls-9" d="m453.43,398.52c.29-.09.58-.16.89-.22-.3.06-.6.13-.89.22Z"/><path class="cls-9" d="m455.78,398.17h5.12s-5.12,0-5.12,0c-.33,0-.65.02-.97.06.32-.04.64-.06.97-.06Z"/><rect class="cls-9" x="464.86" y="398.17" width="2.54" height="0"/><path class="cls-9" d="m449.65,401.01c-.1.12-.19.23-.28.35h0c.09-.12.18-.24.29-.35Z"/><path class="cls-9" d="m454.32,398.3c-.3.06-.6.13-.89.22.29-.09.58-.16.89-.22Z"/><path class="cls-9" d="m460.9,398.17h0s-5.12,0-5.12,0c-.33,0-.65.02-.97.06.32-.04.64-.06.97-.06h5.12Z"/><path class="cls-9" d="m463.91,397.32l-.94-.85c-.35.28-.69.57-1.03.85.35-.29.69-.57,1.03-.86.31.28.63.57.94.86Z"/><rect class="cls-9" x="464.86" y="398.17" width="2.55" height="0"/><path class="cls-7" d="m352.74,424.74v3.91s-.12.09-.25.17c-.03.02-.07.04-.1.06-.03.02-.07.04-.12.07-.04.02-.08.05-.13.07-.04.02-.09.05-.14.07-.1.05-.21.09-.32.13-.06.02-.12.04-.18.06-.08.02-.15.05-.23.07-.1.02-.2.04-.3.06-.02,0-.03,0-.05,0-.07.01-.14.02-.21.02-.35.02-.71,0-1.09-.12-.35-.11-.64-.27-.89-.46-.06-.04-.12-.09-.17-.13-.04-.03-.08-.07-.12-.11-.04-.04-.08-.08-.12-.12-.05-.05-.09-.09-.13-.14-.07-.08-.13-.15-.18-.23-.02-.02-.03-.04-.05-.06-.03-.05-.07-.09-.1-.14-.02-.02-.03-.04-.04-.06-.04-.07-.08-.13-.12-.2-.07-.12-.13-.23-.17-.31-.4-.76-.52-1.57-.5-2.32,0-.05,0-.11,0-.17.01-.21.04-.43.07-.64.03-.15.06-.3.09-.45.02-.1.05-.2.07-.29.03-.09.05-.18.08-.27h0c.03-.09.06-.18.09-.26,0,0,0,0,0,0,.03-.08.06-.16.09-.24.02-.06.04-.12.07-.17s.05-.1.07-.15t0,0c.04-.1.08-.2.13-.28.02-.05.05-.1.08-.15.01-.03.02-.05.03-.07.07-.13.12-.22.15-.26,0,0,0,0,0,0,.02,0,.03.02.04.03.02.01.03.02.04.03,1.54,1.02,3.07,2.04,4.61,3.06Z"/><path class="cls-7" d="m591.17,466.47c-.18,2.6-.35,5.21-.52,7.81,0,0-.01.02-.02.02h0s-.03.05-.06.08c-.02.02-.03.04-.04.06-.03.03-.07.08-.1.12-.1.12-.23.26-.38.42-.06.06-.13.12-.2.19h0c-.07.06-.15.13-.23.2-.2.16-.44.33-.7.48-.08.05-.16.09-.24.13-.58.3-1.27.51-2.07.52-.34,0-.67-.03-1-.11-.12-.03-.25-.06-.37-.1-.21-.07-.42-.15-.62-.24-.1-.05-.2-.1-.29-.15-.12-.07-.23-.13-.35-.21-.17-.11-.32-.23-.48-.36-.11-.09-.21-.18-.31-.28-.1-.1-.19-.2-.28-.3-.05-.05-.09-.11-.13-.16-.13-.16-.25-.33-.36-.51-.12-.19-.23-.4-.33-.61-.02-.03-.03-.06-.04-.09-.08-.18-.15-.38-.22-.57,0-.02,0-.03-.02-.05s-.02-.03-.02-.05c.02-1,.05-2,.07-2.99.02-1,.05-2,.07-2.99,3.08-.09,6.17-.18,9.26-.26Z"/><path class="cls-7" d="m563.93,462.82h0s-.09.12-.17.21h0s-.07.08-.11.13h0s-.07.07-.1.11c-.11.11-.24.23-.38.36h0c-.23.2-.52.41-.85.61h0s-.04.02-.07.03c-.22.12-.46.24-.72.34-.06.02-.12.04-.18.06-.24.08-.5.14-.76.18h0c-.13.02-.28.03-.42.05-.73.05-1.37-.06-1.92-.23-.07-.02-.13-.04-.19-.07-.82-.3-1.36-.73-1.54-.88h0c-.04-.95-.08-1.91-.13-2.86-.05-.96-.09-1.91-.13-2.87h0c1.17.02,2.35.05,3.52.07,1.17.02,2.34.04,3.52.07.22,1.56.43,3.13.65,4.69Z"/><text class="cls-2" transform="translate(0 489.31) scale(.74 1)"><tspan x="0" y="0">k</tspan></text><text class="cls-1" transform="translate(670.98 472.25) scale(.73 1)"><tspan class="cls-10" x="0" y="0">A</tspan><tspan x="297.67" y="0">L</tspan><tspan class="cls-11" x="610.74" y="0">E</tspan><tspan x="915.14" y="0">D</tspan></text></svg>